<?xml version="1.0" encoding="utf-8"?>
<!-- Generator: Adobe Illustrator 15.1.0, SVG Export Plug-In . SVG Version: 6.00 Build 0)  -->
<!DOCTYPE svg PUBLIC "-//W3C//DTD SVG 1.1//EN" "http://www.w3.org/Graphics/SVG/1.1/DTD/svg11.dtd">
<svg version="1.1" id="Слой_1" xmlns="http://www.w3.org/2000/svg" xmlns:xlink="http://www.w3.org/1999/xlink" x="0px" y="0px"
	 width="150px" height="83px" viewBox="0 0 150 83" enable-background="new 0 0 150 83" xml:space="preserve">
<g>
	<path fill="#00608A" d="M65.235,36.918c0.103-0.729,0.088-1.563-0.449-2.064c-0.265-0.232-0.757-0.491-1.684-0.491
		c-0.661,0-1.308,0.147-1.837,0.797c-0.736,0.884-0.839,2.402-0.839,3.758v1.251c0,1.134,0.166,2.761,0.918,3.585
		c0.453,0.492,1.315,0.918,2.409,0.918c0.662,0,1.572-0.129,2.298-0.445c0.537-0.244,1.076-0.58,1.475-0.926l1.339,2.273
		c-0.804,0.578-1.573,0.973-2.277,1.227c-0.367,0.129-1.549,0.537-2.988,0.537c-2.579,0-4.1-1.1-4.944-2.037
		c-1.504-1.721-1.758-3.974-1.758-5.735c0-1.825,0.242-4.254,1.74-5.935c1.415-1.585,3.288-1.84,4.707-1.84
		c0.643,0,2.496,0.044,3.712,0.815c1.351,0.84,1.874,2.494,1.314,4.103L65.235,36.918z"/>
	<path fill="#00608A" d="M76.904,34.709l-0.08,2.774c-0.052,1.627-0.18,3.409-0.378,4.854c-0.122,1.029-0.357,2.576-1.583,3.734
		c-0.986,0.924-2.45,1.352-4.145,1.266l-0.284-2.988c1.163,0.045,2.019-0.303,2.521-1.264c0.226-0.479,0.409-1.137,0.578-3.245
		c0.082-1.16,0.192-3.374,0.231-4.725l0.085-3.081h9.112v15.04H79.61v-12.37h-2.706V34.709z"/>
	<path fill="#00608A" d="M89.567,32.043l1.886,4.316c0.543,1.252,0.929,2.322,1.226,3.335h0.095
		c0.277-0.948,0.745-2.367,1.112-3.307l1.679-4.345h3.262l-4.813,11.603c-0.34,0.813-0.659,1.654-1.372,2.426
		c-0.91,1.008-1.849,1.266-3.045,1.266c-0.629,0-1.553-0.107-2.759-0.857l1.056-2.277c0.462,0.342,1.074,0.555,1.565,0.555
		c0.622,0,0.881-0.363,1.297-1.25l0.278-0.594l-5.356-10.871H89.567z"/>
	<path fill="#00608A" d="M111.732,37.908h0.75c0.306,0,0.749-0.089,0.989-0.283c0.208-0.17,0.452-0.683,0.552-1.027l0.735-2.232
		c0.41-1.227,0.876-1.93,1.763-2.302c0.41-0.167,0.896-0.275,1.457-0.275c0.5,0,1.069,0.065,1.783,0.385l-0.515,2.426
		c-0.24-0.146-0.585-0.237-0.877-0.237c-0.283,0-0.519,0.109-0.689,0.32c-0.244,0.28-0.324,0.736-0.512,1.354l-0.241,0.781
		c-0.17,0.535-0.447,1.176-0.774,1.541c-0.306,0.345-0.757,0.623-1.271,0.753v0.061c1.122,0.174,1.744,0.837,2.046,1.226
		c0.429,0.558,0.659,1.135,0.854,1.711l1.679,4.967h-3.499l-1.419-4.229c-0.435-1.293-0.735-1.7-0.882-1.847
		c-0.325-0.33-0.862-0.518-1.377-0.518h-0.551v6.593h-3.352v-6.593h-0.561c-0.511,0-1.052,0.188-1.378,0.518
		c-0.151,0.146-0.448,0.554-0.882,1.847l-1.414,4.229h-3.503l1.679-4.967c0.192-0.571,0.424-1.151,0.862-1.711
		c0.298-0.389,0.915-1.052,2.032-1.226v-0.061c-0.514-0.132-0.963-0.408-1.269-0.753c-0.32-0.365-0.599-1.006-0.764-1.541
		l-0.244-0.781c-0.199-0.62-0.278-1.074-0.515-1.354c-0.169-0.211-0.405-0.32-0.684-0.32c-0.302,0-0.646,0.092-0.887,0.237
		l-0.518-2.426c0.711-0.32,1.291-0.385,1.79-0.385c0.552,0,1.052,0.108,1.453,0.275c0.881,0.37,1.357,1.073,1.758,2.302l0.736,2.232
		c0.113,0.344,0.345,0.857,0.557,1.027c0.235,0.193,0.692,0.283,0.989,0.283h0.76v-5.86h3.352V37.908L111.732,37.908z"/>
	<path fill="#00608A" d="M122.849,32.043h9.566v2.666h-6.214v3.109h1.075c1.268,0,3.14,0,4.62,0.988
		c1.734,1.183,1.844,2.944,1.844,3.576c0,1.389-0.666,2.66-1.59,3.434c-1.377,1.16-3.262,1.264-4.625,1.264h-4.677V32.043
		L122.849,32.043z M126.206,44.504h1.976c0.726,0,1.286-0.367,1.561-0.709c0.283-0.322,0.477-0.834,0.477-1.398
		c0-0.599-0.193-1.118-0.712-1.525c-0.557-0.448-1.09-0.474-1.638-0.474h-1.663V44.504z"/>
	<path fill="#00608A" d="M149,47.078h-3.659l-1.417-3.605h-4.55l-1.354,3.605h-3.111l5.804-15.035h2.49L149,47.078z M143.116,40.893
		l-0.518-1.417c-0.256-0.729-0.562-1.417-0.905-2.878h-0.129c-0.212,0.857-0.559,2.059-0.917,3.075l-0.434,1.22H143.116z"/>
	<path fill="#00608A" d="M60.999,56.867h1.482c0.305,0,0.751-0.089,0.99-0.283c0.216-0.171,0.445-0.681,0.553-1.029l0.731-2.235
		c0.414-1.224,0.886-1.926,1.768-2.294c0.472-0.2,0.944-0.283,1.458-0.283c0.609,0,1.184,0.083,1.874,0.391l-0.524,2.425
		c-0.234-0.148-0.579-0.241-0.877-0.241c-0.276,0-0.517,0.108-0.686,0.323c-0.237,0.287-0.324,0.735-0.522,1.356l-0.231,0.771
		c-0.168,0.539-0.452,1.19-0.774,1.551c-0.303,0.34-0.752,0.625-1.268,0.744v0.066c1.12,0.17,1.741,0.846,2.042,1.229
		c0.43,0.56,0.664,1.134,0.857,1.715l1.673,4.964h-3.583l-1.424-4.231c-0.428-1.288-0.719-1.697-0.875-1.853
		c-0.319-0.321-0.854-0.513-1.367-0.513h-1.297v6.597H57.65V50.997h3.349V56.867z"/>
	<path fill="#00608A" d="M78.205,51c1.312,0,2.834,0.085,4.089,0.942c1.069,0.735,1.687,1.87,1.687,3.438
		c0,1.419-0.536,2.517-1.24,3.204c-0.607,0.577-1.853,1.378-4.236,1.378h-2.255v6.076h-3.354V51H78.205z M76.249,57.376h1.909
		c0.259,0,1.227-0.021,1.763-0.512c0.322-0.302,0.538-0.821,0.538-1.331c0-0.705-0.255-1.16-0.538-1.419
		c-0.494-0.443-1.179-0.538-1.716-0.538h-1.956V57.376z"/>
	<path fill="#00608A" d="M96.441,52.722c1.526,1.715,1.721,4.074,1.721,5.792c0,1.722-0.194,4.086-1.721,5.808
		c-0.768,0.877-2.23,1.975-4.747,1.975c-2.509,0-3.975-1.098-4.748-1.975c-1.519-1.719-1.716-4.084-1.716-5.808
		c0-1.715,0.197-4.075,1.716-5.792c0.769-0.888,2.234-1.981,4.748-1.981C94.211,50.74,95.674,51.834,96.441,52.722 M94.64,57.763
		c0-0.877-0.023-2.688-0.853-3.628c-0.282-0.299-0.905-0.82-2.089-0.82c-1.027,0-1.716,0.409-2.083,0.82
		c-0.58,0.639-0.858,1.804-0.858,3.628v1.484c0,1.844,0.278,3.011,0.858,3.657c0.367,0.405,1.056,0.815,2.083,0.815
		s1.722-0.41,2.089-0.815c0.575-0.644,0.853-1.811,0.853-3.657V57.763z"/>
	<path fill="#00608A" d="M106.328,51c1.094,0,2.856,0.062,4.04,0.942c0.863,0.645,1.353,1.617,1.353,3.077
		c0,0.431-0.095,1.223-0.471,1.907c-0.411,0.719-0.976,1.031-1.443,1.208v0.06c0.495,0.132,1.183,0.412,1.739,1.191
		c0.496,0.681,0.669,1.418,0.669,2.155c0,1.474-0.63,2.696-1.376,3.34c-1.207,1.045-3.073,1.159-4.408,1.159h-5.194V51.002h5.092V51
		z M104.583,56.924h1.702c0.538,0,1.179-0.043,1.632-0.574c0.253-0.325,0.363-0.688,0.363-1.013c0-0.426-0.048-0.942-0.449-1.33
		c-0.381-0.362-0.905-0.425-1.287-0.425h-1.961V56.924z M104.583,63.461h2.037c0.435,0,1.104-0.063,1.55-0.54
		c0.332-0.324,0.52-0.836,0.52-1.46c0-0.817-0.344-1.262-0.646-1.51c-0.514-0.408-1.202-0.444-1.783-0.444h-1.678V63.461z"/>
	<polygon fill="#00608A" points="128.053,66.038 124.7,66.038 124.7,60.019 124.827,56.179 124.724,56.179 118.704,66.038 
		115.441,66.038 115.441,51 118.798,51 118.798,57.014 118.665,60.858 118.774,60.858 124.784,51 128.053,51 	"/>
	<path fill="#e9392c" d="M46.734,35.747c-0.267-11.297-10.537-17.818-18.749-9.524c-6.73-8.339-16.368-9.391-21.83-4.894
		C0.413,26.143-0.923,33.741,0.557,42.2c2.628,14.989,11.681,30.102,13.992,34.156c2.058,3.62,4.752,8.152,8.363,6.154
		c3.606-1.994-0.386-8.245-1.219-9.777c-2.313-4.279-21.351-37.26-6.669-43.643c3.45-1.499,7.224,0.783,8.732,2.061
		c-1.729,2.338-3.196,5.687-3.196,8.559c0,5.214,2.814,9.071,6.917,9.071c4.11,0,7.442-3.944,7.442-8.972
		c0-3.55-2.077-7.046-3.924-9.589c3.596-3.477,10.484-0.07,10.044,9.328c-0.318,6.843-3.653,15.163-9.877,28.837
		c0,0.003,0,0.012,0,0.021c-0.148,0.324-0.235,0.799-0.235,1.183c0,1.462,1.084,2.659,2.548,2.659c1.792,0,2.749-1.927,2.888-2.206
		c1.837-3.521,5.586-12.957,5.91-13.82C43.79,52.142,46.947,44.267,46.734,35.747 M27.542,44.229c-1.667,0-2.865-1.307-2.865-3.964
		c0-2.661,2.75-6.247,2.75-6.247s3.06,3.583,3.06,6.247C30.489,42.923,29.202,44.229,27.542,44.229 M35.055,21.15
		c2.481-0.26,4.222-3.13,3.887-6.417C38.604,11.467,36.311,9,33.818,9.262c-2.492,0.258-4.24,3.13-3.896,6.418
		C30.262,18.956,32.556,21.411,35.055,21.15 M13.506,15.405c2.988,0.68,6.185-2.199,7.143-6.42c0.962-4.227-0.683-8.204-3.666-8.884
		c-2.99-0.685-6.19,2.192-7.147,6.413C8.876,10.751,10.522,14.726,13.506,15.405"/>
</g>
</svg>
